<svg xmlns="http://www.w3.org/2000/svg" viewBox="0 0 800 480" fill="none">
  <rect width="800" height="480" fill="#1f2937" rx="8"/>
  <rect x="20" y="20" width="760" height="40" rx="6" fill="#374151"/>
  <circle cx="40" cy="40" r="12" fill="#FF6B35"/>
  <rect x="65" y="32" width="120" height="16" rx="4" fill="#4B5563"/>
  <rect x="200" y="32" width="80" height="16" rx="4" fill="#4B5563"/>
  <rect x="300" y="30" width="50" height="20" rx="10" fill="#FF6B35"/>
  <rect x="80" y="80" width="340" height="170" rx="8" fill="#374151"/>
  <rect x="440" y="80" width="340" height="170" rx="8" fill="#374151"/>
  <rect x="80" y="270" width="220" height="100" rx="8" fill="#374151"/>
  <rect x="320" y="270" width="220" height="100" rx="8" fill="#374151"/>
  <rect x="560" y="270" width="220" height="100" rx="8" fill="#374151"/>
  <rect x="100" y="100" width="60" height="14" rx="4" fill="#6B7280"/>
  <rect x="100" y="125" width="100" height="28" rx="4" fill="#22c55e"/>
  <circle cx="520" cy="110" r="24" fill="none" stroke="#FF6B35" stroke-width="6"/>
  <circle cx="520" cy="110" r="24" fill="none" stroke="#22c55e" stroke-width="6" stroke-dasharray="80 72"/>
  <rect x="100" y="295" width="40" height="14" rx="4" fill="#6B7280"/>
  <rect x="100" y="320" width="160" height="24" rx="4" fill="#FF6B35"/>
  <rect x="340" y="295" width="60" height="14" rx="4" fill="#6B7280"/>
  <rect x="340" y="320" width="160" height="24" rx="4" fill="#2196F3"/>
  <rect x="580" y="295" width="40" height="14" rx="4" fill="#6B7280"/>
  <rect x="580" y="320" width="160" height="24" rx="4" fill="#ec4899"/>
  <text x="400" y="470" text-anchor="middle" font-family="system-ui,sans-serif" font-size="14" fill="#6B7280">Dashboard — Vue d'ensemble</text>
</svg>
