<svg xmlns="http://www.w3.org/2000/svg" viewBox="0 0 800 480" fill="none">
  <rect width="800" height="480" fill="#1f2937" rx="8"/>
  <rect x="20" y="20" width="760" height="40" rx="6" fill="#374151"/>
  <circle cx="40" cy="40" r="12" fill="#f97316"/>
  <rect x="65" y="32" width="100" height="16" rx="4" fill="#4B5563"/>
  <rect x="180" y="30" width="70" height="20" rx="10" fill="#22c55e"/>
  <rect x="80" y="80" width="300" height="200" rx="8" fill="#374151"/>
  <rect x="400" y="80" width="380" height="90" rx="8" fill="#374151"/>
  <rect x="400" y="185" width="380" height="95" rx="8" fill="#374151"/>
  <rect x="100" y="100" width="120" height="14" rx="4" fill="#6B7280"/>
  <rect x="100" y="125" width="200" height="20" rx="4" fill="#4B5563"/>
  <rect x="100" y="155" width="160" height="20" rx="4" fill="#4B5563"/>
  <rect x="100" y="185" width="80" height="14" rx="4" fill="#6B7280"/>
  <rect x="100" y="210" width="60" height="40" rx="4" fill="#f97316"/>
  <text x="130" y="235" text-anchor="middle" font-family="system-ui,sans-serif" font-size="20" fill="#fff" font-weight="bold">75 000</text>
  <rect x="180" y="210" width="60" height="40" rx="4" fill="#22c55e"/>
  <text x="210" y="235" text-anchor="middle" font-family="system-ui,sans-serif" font-size="20" fill="#fff" font-weight="bold">12</text>
  <rect x="260" y="210" width="60" height="40" rx="4" fill="#3b82f6"/>
  <text x="290" y="235" text-anchor="middle" font-family="system-ui,sans-serif" font-size="20" fill="#fff" font-weight="bold">5</text>
  <rect x="100" y="265" width="60" height="10" rx="4" fill="#6B7280"/>
  <rect x="180" y="265" width="60" height="10" rx="4" fill="#6B7280"/>
  <rect x="260" y="265" width="60" height="10" rx="4" fill="#6B7280"/>
  <rect x="420" y="100" width="80" height="12" rx="4" fill="#6B7280"/>
  <rect x="420" y="120" width="340" height="16" rx="4" fill="#4B5563"/>
  <rect x="420" y="145" width="340" height="16" rx="4" fill="#4B5563"/>
  <rect x="420" y="205" width="80" height="12" rx="4" fill="#6B7280"/>
  <rect x="420" y="225" width="340" height="16" rx="4" fill="#4B5563"/>
  <rect x="420" y="250" width="200" height="16" rx="4" fill="#4B5563"/>
  <rect x="80" y="300" width="720" height="40" rx="6" fill="#f97316"/>
  <text x="440" y="325" text-anchor="middle" font-family="system-ui,sans-serif" font-size="15" fill="#fff" font-weight="600">Nouvelle facture</text>
  <rect x="80" y="355" width="720" height="2" rx="1" fill="#374151"/>
  <rect x="80" y="375" width="220" height="70" rx="6" fill="#374151"/>
  <rect x="320" y="375" width="220" height="70" rx="6" fill="#374151"/>
  <rect x="560" y="375" width="220" height="70" rx="6" fill="#374151"/>
  <rect x="100" y="390" width="40" height="10" rx="4" fill="#6B7280"/>
  <rect x="100" y="406" width="140" height="24" rx="4" fill="#22c55e"/>
  <rect x="340" y="390" width="40" height="10" rx="4" fill="#6B7280"/>
  <rect x="340" y="406" width="140" height="24" rx="4" fill="#f97316"/>
  <rect x="580" y="390" width="40" height="10" rx="4" fill="#6B7280"/>
  <rect x="580" y="406" width="140" height="24" rx="4" fill="#3b82f6"/>
  <text x="400" y="470" text-anchor="middle" font-family="system-ui,sans-serif" font-size="14" fill="#6B7280">Ventes — Facturation</text>
</svg>
