<svg xmlns="http://www.w3.org/2000/svg" viewBox="0 0 800 480" fill="none">
  <rect width="800" height="480" fill="#1f2937" rx="8"/>
  <rect x="20" y="20" width="760" height="40" rx="6" fill="#374151"/>
  <circle cx="40" cy="40" r="12" fill="#4CAF50"/>
  <rect x="65" y="32" width="140" height="16" rx="4" fill="#4B5563"/>
  <rect x="220" y="32" width="100" height="16" rx="4" fill="#4B5563"/>
  <rect x="80" y="80" width="300" height="50" rx="6" fill="#374151"/>
  <rect x="400" y="80" width="180" height="50" rx="6" fill="#374151"/>
  <rect x="600" y="80" width="180" height="50" rx="6" fill="#374151"/>
  <rect x="90" y="90" width="80" height="10" rx="4" fill="#6B7280"/>
  <rect x="90" y="108" width="120" height="14" rx="4" fill="#22c55e"/>
  <rect x="410" y="90" width="60" height="10" rx="4" fill="#6B7280"/>
  <rect x="410" y="108" width="100" height="14" rx="4" fill="#FF6B35"/>
  <rect x="610" y="90" width="60" height="10" rx="4" fill="#6B7280"/>
  <rect x="610" y="108" width="100" height="14" rx="4" fill="#2196F3"/>
  <rect x="80" y="150" width="720" height="30" rx="4" fill="#374151"/>
  <rect x="100" y="158" width="100" height="14" rx="4" fill="#6B7280"/>
  <rect x="250" y="158" width="120" height="14" rx="4" fill="#6B7280"/>
  <rect x="450" y="158" width="80" height="14" rx="4" fill="#6B7280"/>
  <rect x="600" y="158" width="80" height="14" rx="4" fill="#6B7280"/>
  <rect x="80" y="190" width="720" height="25" rx="4" fill="#374151"/>
  <rect x="100" y="197" width="90" height="10" rx="4" fill="#4B5563"/>
  <rect x="250" y="197" width="100" height="10" rx="4" fill="#4B5563"/>
  <rect x="450" y="197" width="60" height="10" rx="4" fill="#22c55e"/>
  <rect x="600" y="197" width="70" height="10" rx="4" fill="#4B5563"/>
  <rect x="80" y="225" width="720" height="25" rx="4" fill="#374151"/>
  <rect x="100" y="232" width="110" height="10" rx="4" fill="#4B5563"/>
  <rect x="250" y="232" width="80" height="10" rx="4" fill="#4B5563"/>
  <rect x="450" y="232" width="70" height="10" rx="4" fill="#4B5563"/>
  <rect x="600" y="232" width="60" height="10" rx="4" fill="#ef4444"/>
  <rect x="80" y="260" width="720" height="25" rx="4" fill="#374151"/>
  <rect x="100" y="267" width="70" height="10" rx="4" fill="#4B5563"/>
  <rect x="250" y="267" width="110" height="10" rx="4" fill="#4B5563"/>
  <rect x="450" y="267" width="60" height="10" rx="4" fill="#22c55e"/>
  <rect x="600" y="267" width="80" height="10" rx="4" fill="#4B5563"/>
  <rect x="80" y="310" width="720" height="2" rx="1" fill="#374151"/>
  <rect x="80" y="330" width="300" height="50" rx="6" fill="#374151"/>
  <rect x="400" y="330" width="300" height="50" rx="6" fill="#374151"/>
  <rect x="90" y="345" width="60" height="10" rx="4" fill="#6B7280"/>
  <rect x="90" y="362" width="100" height="14" rx="4" fill="#22c55e"/>
  <rect x="410" y="345" width="60" height="10" rx="4" fill="#6B7280"/>
  <rect x="410" y="362" width="100" height="14" rx="4" fill="#ef4444"/>
  <rect x="80" y="410" width="720" height="40" rx="6" fill="#FF6B35"/>
  <text x="400" y="435" text-anchor="middle" font-family="system-ui,sans-serif" font-size="14" fill="#fff" font-weight="600">Voir le compte de résultat complet →</text>
  <text x="400" y="470" text-anchor="middle" font-family="system-ui,sans-serif" font-size="14" fill="#6B7280">Comptabilité — Bilan et résultat</text>
</svg>
