<svg xmlns="http://www.w3.org/2000/svg" viewBox="0 0 800 480" fill="none">
  <rect width="800" height="480" fill="#1f2937" rx="8"/>
  <rect x="20" y="20" width="760" height="40" rx="6" fill="#374151"/>
  <circle cx="40" cy="40" r="12" fill="#22c55e"/>
  <rect x="65" y="32" width="110" height="16" rx="4" fill="#4B5563"/>
  <rect x="190" y="32" width="90" height="16" rx="4" fill="#4B5563"/>
  <rect x="80" y="80" width="720" height="30" rx="6" fill="#374151"/>
  <rect x="100" y="88" width="80" height="14" rx="4" fill="#6B7280"/>
  <rect x="220" y="88" width="150" height="14" rx="4" fill="#6B7280"/>
  <rect x="420" y="88" width="60" height="14" rx="4" fill="#6B7280"/>
  <rect x="530" y="88" width="60" height="14" rx="4" fill="#6B7280"/>
  <rect x="640" y="88" width="80" height="14" rx="4" fill="#6B7280"/>
  <rect x="80" y="120" width="720" height="30" rx="6" fill="#374151"/>
  <rect x="100" y="128" width="100" height="14" rx="4" fill="#4B5563"/>
  <rect x="220" y="128" width="120" height="14" rx="4" fill="#4B5563"/>
  <rect x="420" y="128" width="50" height="14" rx="4" fill="#22c55e"/>
  <rect x="530" y="128" width="60" height="14" rx="4" fill="#4B5563"/>
  <rect x="640" y="128" width="70" height="14" rx="4" fill="#4B5563"/>
  <rect x="80" y="160" width="720" height="30" rx="6" fill="#374151"/>
  <rect x="100" y="168" width="90" height="14" rx="4" fill="#4B5563"/>
  <rect x="220" y="168" width="140" height="14" rx="4" fill="#4B5563"/>
  <rect x="420" y="168" width="60" height="14" rx="4" fill="#4B5563"/>
  <rect x="530" y="168" width="50" height="14" rx="4" fill="#f97316"/>
  <rect x="640" y="168" width="60" height="14" rx="4" fill="#4B5563"/>
  <rect x="80" y="200" width="720" height="30" rx="6" fill="#374151"/>
  <rect x="100" y="208" width="80" height="14" rx="4" fill="#4B5563"/>
  <rect x="220" y="208" width="130" height="14" rx="4" fill="#4B5563"/>
  <rect x="420" y="208" width="60" height="14" rx="4" fill="#4B5563"/>
  <rect x="530" y="208" width="70" height="14" rx="4" fill="#ef4444"/>
  <rect x="640" y="208" width="50" height="14" rx="4" fill="#4B5563"/>
  <rect x="80" y="240" width="720" height="30" rx="6" fill="#374151"/>
  <rect x="100" y="248" width="110" height="14" rx="4" fill="#4B5563"/>
  <rect x="220" y="248" width="100" height="14" rx="4" fill="#4B5563"/>
  <rect x="420" y="248" width="50" height="14" rx="4" fill="#4B5563"/>
  <rect x="530" y="248" width="60" height="14" rx="4" fill="#22c55e"/>
  <rect x="640" y="248" width="80" height="14" rx="4" fill="#4B5563"/>
  <rect x="80" y="290" width="720" height="2" rx="1" fill="#374151"/>
  <rect x="80" y="310" width="340" height="80" rx="8" fill="#374151"/>
  <rect x="440" y="310" width="340" height="80" rx="8" fill="#374151"/>
  <rect x="100" y="330" width="60" height="10" rx="4" fill="#6B7280"/>
  <rect x="100" y="348" width="180" height="24" rx="4" fill="#f97316"/>
  <rect x="460" y="330" width="60" height="10" rx="4" fill="#6B7280"/>
  <rect x="460" y="348" width="180" height="24" rx="4" fill="#22c55e"/>
  <rect x="80" y="410" width="720" height="40" rx="6" fill="#22c55e"/>
  <text x="440" y="435" text-anchor="middle" font-family="system-ui,sans-serif" font-size="15" fill="#fff" font-weight="600">Ajuster le stock</text>
  <text x="400" y="470" text-anchor="middle" font-family="system-ui,sans-serif" font-size="14" fill="#6B7280">Stocks — Inventaire</text>
</svg>
